<svg width="61" height="19" viewBox="0 0 61 19" fill="none" xmlns="http://www.w3.org/2000/svg">
<path d="M0.565918 18V5.86265H3.47792L3.72262 7.89365C4.11422 7.19225 4.66072 6.62935 5.36222 6.20525C6.06362 5.78105 6.89562 5.56895 7.85822 5.56895C8.86962 5.56895 9.72612 5.78925 10.4276 6.22965C11.1291 6.65385 11.6674 7.28195 12.0426 8.11395C12.4178 8.94595 12.6054 9.97365 12.6054 11.1972V18H9.32642V11.4908C9.32642 10.4794 9.11432 9.70455 8.69022 9.16615C8.28232 8.62785 7.63792 8.35865 6.75702 8.35865C6.20232 8.35865 5.70472 8.49735 5.26432 8.77465C4.82382 9.03565 4.48122 9.41905 4.23652 9.92475C3.99182 10.4141 3.86942 11.0177 3.86942 11.7355V18H0.565918ZM21.3978 18.2936C20.2233 18.2936 19.1629 18.0245 18.2167 17.4861C17.2868 16.9478 16.5445 16.1973 15.9898 15.2348C15.4352 14.2723 15.1578 13.1711 15.1578 11.9313C15.1578 10.6751 15.4352 9.57405 15.9898 8.62785C16.5445 7.66535 17.2949 6.91485 18.2411 6.37655C19.1873 5.83815 20.2396 5.56895 21.3978 5.56895C22.5887 5.56895 23.6491 5.83815 24.579 6.37655C25.5252 6.91485 26.2756 7.66535 26.8303 8.62785C27.385 9.57405 27.6623 10.6751 27.6623 11.9313C27.6623 13.1875 27.385 14.2968 26.8303 15.2593C26.2756 16.2055 25.5252 16.9478 24.579 17.4861C23.6328 18.0245 22.5724 18.2936 21.3978 18.2936ZM21.3978 15.4551C21.9362 15.4551 22.4175 15.3245 22.8416 15.0635C23.2658 14.7862 23.6084 14.3865 23.8694 13.8645C24.1467 13.3424 24.2854 12.698 24.2854 11.9313C24.2854 11.1482 24.1549 10.4957 23.8938 9.97365C23.6328 9.45165 23.2821 9.06015 22.8416 8.79915C22.4175 8.53805 21.9444 8.40755 21.4223 8.40755C20.9003 8.40755 20.419 8.53805 19.9785 8.79915C19.5544 9.06015 19.2036 9.45165 18.9263 9.97365C18.6653 10.4957 18.5348 11.1482 18.5348 11.9313C18.5348 12.698 18.6653 13.3424 18.9263 13.8645C19.2036 14.3865 19.5544 14.7862 19.9785 15.0635C20.419 15.3245 20.8921 15.4551 21.3978 15.4551ZM35.4788 18.2936C34.402 18.2936 33.4477 18.1142 32.6157 17.7553C31.7837 17.3964 31.1148 16.907 30.6091 16.2871C30.1197 15.6508 29.8342 14.933 29.7526 14.1336H33.0562C33.1377 14.4273 33.2764 14.7046 33.4722 14.9656C33.6842 15.2104 33.9534 15.4061 34.2797 15.5529C34.606 15.6998 34.9893 15.7732 35.4298 15.7732C35.8703 15.7732 36.2292 15.7161 36.5065 15.6019C36.7839 15.4714 36.9878 15.3082 37.1183 15.1125C37.2488 14.9004 37.314 14.6883 37.314 14.4762C37.314 14.15 37.2162 13.9053 37.0204 13.7421C36.8246 13.5627 36.531 13.4158 36.1395 13.3016C35.7642 13.1875 35.3156 13.0651 34.7936 12.9346C34.2715 12.8041 33.7332 12.6573 33.1785 12.4941C32.6239 12.331 32.1181 12.1271 31.6613 11.8824C31.2209 11.6213 30.862 11.2951 30.5846 10.9035C30.3073 10.512 30.1686 10.0144 30.1686 9.41085C30.1686 8.69305 30.3644 8.04865 30.7559 7.47765C31.1475 6.89045 31.7103 6.42545 32.4444 6.08285C33.1948 5.74025 34.0921 5.56895 35.1362 5.56895C36.5881 5.56895 37.7464 5.90345 38.611 6.57225C39.4919 7.24115 40.0058 8.16285 40.1526 9.33745H37.0449C36.9633 8.94595 36.7512 8.64415 36.4086 8.43205C36.0824 8.21995 35.65 8.11395 35.1117 8.11395C34.5407 8.11395 34.1002 8.21995 33.7903 8.43205C33.4966 8.62785 33.3498 8.88885 33.3498 9.21515C33.3498 9.42715 33.4559 9.62295 33.6679 9.80245C33.8963 9.96555 34.1981 10.1123 34.5733 10.2428C34.9486 10.357 35.389 10.4712 35.8948 10.5854C36.7757 10.7975 37.5669 11.0259 38.2684 11.2706C38.9862 11.499 39.5572 11.8416 39.9813 12.2984C40.4055 12.7551 40.6176 13.424 40.6176 14.3049C40.6339 15.0554 40.43 15.7324 40.0058 16.336C39.5817 16.9396 38.9862 17.4209 38.2195 17.7798C37.4527 18.1224 36.5391 18.2936 35.4788 18.2936ZM43.4156 18V5.86265H46.7192V18H43.4156ZM45.0796 4.10075C44.476 4.10075 43.9866 3.92946 43.6114 3.58687C43.2362 3.22797 43.0486 2.77934 43.0486 2.24099C43.0486 1.70264 43.2362 1.26217 43.6114 0.919576C43.9866 0.560676 44.476 0.381226 45.0796 0.381226C45.6832 0.381226 46.1727 0.560676 46.5479 0.919576C46.9394 1.26217 47.1352 1.70264 47.1352 2.24099C47.1352 2.77934 46.9394 3.22797 46.5479 3.58687C46.1727 3.92946 45.6832 4.10075 45.0796 4.10075ZM55.0265 18.2936C53.9498 18.2936 52.9955 18.1142 52.1635 17.7553C51.3315 17.3964 50.6626 16.907 50.1569 16.2871C49.6675 15.6508 49.382 14.933 49.3004 14.1336H52.604C52.6855 14.4273 52.8242 14.7046 53.02 14.9656C53.232 15.2104 53.5012 15.4061 53.8275 15.5529C54.1538 15.6998 54.5371 15.7732 54.9776 15.7732C55.4181 15.7732 55.777 15.7161 56.0543 15.6019C56.3316 15.4714 56.5356 15.3082 56.6661 15.1125C56.7966 14.9004 56.8618 14.6883 56.8618 14.4762C56.8618 14.15 56.764 13.9053 56.5682 13.7421C56.3724 13.5627 56.0788 13.4158 55.6873 13.3016C55.312 13.1875 54.8634 13.0651 54.3414 12.9346C53.8193 12.8041 53.281 12.6573 52.7263 12.4941C52.1716 12.331 51.6659 12.1271 51.2091 11.8824C50.7687 11.6213 50.4098 11.2951 50.1324 10.9035C49.8551 10.512 49.7164 10.0144 49.7164 9.41085C49.7164 8.69305 49.9122 8.04865 50.3037 7.47765C50.6953 6.89045 51.2581 6.42545 51.9922 6.08285C52.7426 5.74025 53.6399 5.56895 54.684 5.56895C56.1359 5.56895 57.2942 5.90345 58.1588 6.57225C59.0397 7.24115 59.5536 8.16285 59.7004 9.33745H56.5927C56.5111 8.94595 56.299 8.64415 55.9564 8.43205C55.6302 8.21995 55.1978 8.11395 54.6595 8.11395C54.0885 8.11395 53.648 8.21995 53.3381 8.43205C53.0444 8.62785 52.8976 8.88885 52.8976 9.21515C52.8976 9.42715 53.0036 9.62295 53.2157 9.80245C53.4441 9.96555 53.7459 10.1123 54.1211 10.2428C54.4964 10.357 54.9368 10.4712 55.4425 10.5854C56.3235 10.7975 57.1147 11.0259 57.8162 11.2706C58.534 11.499 59.105 11.8416 59.5291 12.2984C59.9533 12.7551 60.1654 13.424 60.1654 14.3049C60.1817 15.0554 59.9778 15.7324 59.5536 16.336C59.1294 16.9396 58.534 17.4209 57.7673 17.7798C57.0005 18.1224 56.0869 18.2936 55.0265 18.2936Z" fill="#01383D"/>
</svg>
