<svg width="208" height="147" viewBox="0 0 208 147" fill="none" xmlns="http://www.w3.org/2000/svg">
<path d="M2.256 136.324V140.2C2.256 140.52 2.324 140.748 2.46 140.884C2.596 141.012 2.832 141.076 3.168 141.076H3.972V142H2.988C2.38 142 1.924 141.86 1.62 141.58C1.316 141.3 1.164 140.84 1.164 140.2V136.324H0.312V135.424H1.164V133.768H2.256V135.424H3.972V136.324H2.256ZM8.55909 135.304C9.05509 135.304 9.50309 135.412 9.90309 135.628C10.3031 135.836 10.6151 136.152 10.8391 136.576C11.0711 137 11.1871 137.516 11.1871 138.124V142H10.1071V138.28C10.1071 137.624 9.94309 137.124 9.61509 136.78C9.28709 136.428 8.83909 136.252 8.27109 136.252C7.69509 136.252 7.23509 136.432 6.89109 136.792C6.55509 137.152 6.38709 137.676 6.38709 138.364V142H5.29509V133.12H6.38709V136.36C6.60309 136.024 6.89909 135.764 7.27509 135.58C7.65909 135.396 8.08709 135.304 8.55909 135.304ZM18.9709 138.46C18.9709 138.668 18.9589 138.888 18.9349 139.12H13.6789C13.7189 139.768 13.9389 140.276 14.3389 140.644C14.7469 141.004 15.2389 141.184 15.8149 141.184C16.2869 141.184 16.6789 141.076 16.9909 140.86C17.3109 140.636 17.5349 140.34 17.6629 139.972H18.8389C18.6629 140.604 18.3109 141.12 17.7829 141.52C17.2549 141.912 16.5989 142.108 15.8149 142.108C15.1909 142.108 14.6309 141.968 14.1349 141.688C13.6469 141.408 13.2629 141.012 12.9829 140.5C12.7029 139.98 12.5629 139.38 12.5629 138.7C12.5629 138.02 12.6989 137.424 12.9709 136.912C13.2429 136.4 13.6229 136.008 14.1109 135.736C14.6069 135.456 15.1749 135.316 15.8149 135.316C16.4389 135.316 16.9909 135.452 17.4709 135.724C17.9509 135.996 18.3189 136.372 18.5749 136.852C18.8389 137.324 18.9709 137.86 18.9709 138.46ZM17.8429 138.232C17.8429 137.816 17.7509 137.46 17.5669 137.164C17.3829 136.86 17.1309 136.632 16.8109 136.48C16.4989 136.32 16.1509 136.24 15.7669 136.24C15.2149 136.24 14.7429 136.416 14.3509 136.768C13.9669 137.12 13.7469 137.608 13.6909 138.232H17.8429ZM32.3715 135.424L30.3195 142H29.1915L27.6075 136.78L26.0235 142H24.8955L22.8315 135.424H23.9475L25.4595 140.944L27.0915 135.424H28.2075L29.8035 140.956L31.2915 135.424H32.3715ZM36.3233 142.108C35.7073 142.108 35.1473 141.968 34.6433 141.688C34.1473 141.408 33.7553 141.012 33.4673 140.5C33.1873 139.98 33.0473 139.38 33.0473 138.7C33.0473 138.028 33.1913 137.436 33.4793 136.924C33.7753 136.404 34.1753 136.008 34.6793 135.736C35.1833 135.456 35.7473 135.316 36.3713 135.316C36.9953 135.316 37.5593 135.456 38.0633 135.736C38.5673 136.008 38.9633 136.4 39.2513 136.912C39.5473 137.424 39.6953 138.02 39.6953 138.7C39.6953 139.38 39.5433 139.98 39.2393 140.5C38.9433 141.012 38.5393 141.408 38.0273 141.688C37.5153 141.968 36.9473 142.108 36.3233 142.108ZM36.3233 141.148C36.7153 141.148 37.0833 141.056 37.4273 140.872C37.7713 140.688 38.0473 140.412 38.2553 140.044C38.4713 139.676 38.5793 139.228 38.5793 138.7C38.5793 138.172 38.4753 137.724 38.2673 137.356C38.0593 136.988 37.7873 136.716 37.4513 136.54C37.1153 136.356 36.7513 136.264 36.3593 136.264C35.9593 136.264 35.5913 136.356 35.2553 136.54C34.9273 136.716 34.6633 136.988 34.4633 137.356C34.2633 137.724 34.1633 138.172 34.1633 138.7C34.1633 139.236 34.2593 139.688 34.4513 140.056C34.6513 140.424 34.9153 140.7 35.2433 140.884C35.5713 141.06 35.9313 141.148 36.3233 141.148ZM42.223 136.492C42.415 136.116 42.687 135.824 43.039 135.616C43.399 135.408 43.835 135.304 44.347 135.304V136.432H44.059C42.835 136.432 42.223 137.096 42.223 138.424V142H41.131V135.424H42.223V136.492ZM46.6996 133.12V142H45.6076V133.12H46.6996ZM48.1527 138.688C48.1527 138.016 48.2887 137.428 48.5607 136.924C48.8327 136.412 49.2047 136.016 49.6767 135.736C50.1567 135.456 50.6927 135.316 51.2847 135.316C51.7967 135.316 52.2727 135.436 52.7127 135.676C53.1527 135.908 53.4887 136.216 53.7207 136.6V133.12H54.8247V142H53.7207V140.764C53.5047 141.156 53.1847 141.48 52.7607 141.736C52.3367 141.984 51.8407 142.108 51.2727 142.108C50.6887 142.108 50.1567 141.964 49.6767 141.676C49.2047 141.388 48.8327 140.984 48.5607 140.464C48.2887 139.944 48.1527 139.352 48.1527 138.688ZM53.7207 138.7C53.7207 138.204 53.6207 137.772 53.4207 137.404C53.2207 137.036 52.9487 136.756 52.6047 136.564C52.2687 136.364 51.8967 136.264 51.4887 136.264C51.0807 136.264 50.7087 136.36 50.3727 136.552C50.0367 136.744 49.7687 137.024 49.5687 137.392C49.3687 137.76 49.2687 138.192 49.2687 138.688C49.2687 139.192 49.3687 139.632 49.5687 140.008C49.7687 140.376 50.0367 140.66 50.3727 140.86C50.7087 141.052 51.0807 141.148 51.4887 141.148C51.8967 141.148 52.2687 141.052 52.6047 140.86C52.9487 140.66 53.2207 140.376 53.4207 140.008C53.6207 139.632 53.7207 139.196 53.7207 138.7ZM56.8381 133.636H58.0501L56.8981 136.36H56.1301L56.8381 133.636ZM61.6231 142.108C61.1191 142.108 60.6671 142.024 60.2671 141.856C59.8671 141.68 59.5511 141.44 59.3191 141.136C59.0871 140.824 58.9591 140.468 58.9351 140.068H60.0631C60.0951 140.396 60.2471 140.664 60.5191 140.872C60.7991 141.08 61.1631 141.184 61.6111 141.184C62.0271 141.184 62.3551 141.092 62.5951 140.908C62.8351 140.724 62.9551 140.492 62.9551 140.212C62.9551 139.924 62.8271 139.712 62.5711 139.576C62.3151 139.432 61.9191 139.292 61.3831 139.156C60.8951 139.028 60.4951 138.9 60.1831 138.772C59.8791 138.636 59.6151 138.44 59.3911 138.184C59.1751 137.92 59.0671 137.576 59.0671 137.152C59.0671 136.816 59.1671 136.508 59.3671 136.228C59.5671 135.948 59.8511 135.728 60.2191 135.568C60.5871 135.4 61.0071 135.316 61.4791 135.316C62.2071 135.316 62.7951 135.5 63.2431 135.868C63.6911 136.236 63.9311 136.74 63.9631 137.38H62.8711C62.8471 137.036 62.7071 136.76 62.4511 136.552C62.2031 136.344 61.8671 136.24 61.4431 136.24C61.0511 136.24 60.7391 136.324 60.5071 136.492C60.2751 136.66 60.1591 136.88 60.1591 137.152C60.1591 137.368 60.2271 137.548 60.3631 137.692C60.5071 137.828 60.6831 137.94 60.8911 138.028C61.1071 138.108 61.4031 138.2 61.7791 138.304C62.2511 138.432 62.6351 138.56 62.9311 138.688C63.2271 138.808 63.4791 138.992 63.6871 139.24C63.9031 139.488 64.0151 139.812 64.0231 140.212C64.0231 140.572 63.9231 140.896 63.7231 141.184C63.5231 141.472 63.2391 141.7 62.8711 141.868C62.5111 142.028 62.0951 142.108 61.6231 142.108ZM69.8558 133.12V142H68.7638V133.12H69.8558ZM71.309 138.688C71.309 138.016 71.445 137.428 71.717 136.924C71.989 136.412 72.361 136.016 72.833 135.736C73.313 135.456 73.845 135.316 74.429 135.316C75.005 135.316 75.505 135.44 75.929 135.688C76.353 135.936 76.669 136.248 76.877 136.624V135.424H77.981V142H76.877V140.776C76.661 141.16 76.337 141.48 75.905 141.736C75.481 141.984 74.985 142.108 74.417 142.108C73.833 142.108 73.305 141.964 72.833 141.676C72.361 141.388 71.989 140.984 71.717 140.464C71.445 139.944 71.309 139.352 71.309 138.688ZM76.877 138.7C76.877 138.204 76.777 137.772 76.577 137.404C76.377 137.036 76.105 136.756 75.761 136.564C75.425 136.364 75.053 136.264 74.645 136.264C74.237 136.264 73.865 136.36 73.529 136.552C73.193 136.744 72.925 137.024 72.725 137.392C72.525 137.76 72.425 138.192 72.425 138.688C72.425 139.192 72.525 139.632 72.725 140.008C72.925 140.376 73.193 140.66 73.529 140.86C73.865 141.052 74.237 141.148 74.645 141.148C75.053 141.148 75.425 141.052 75.761 140.86C76.105 140.66 76.377 140.376 76.577 140.008C76.777 139.632 76.877 139.196 76.877 138.7ZM80.9183 136.492C81.1103 136.116 81.3823 135.824 81.7343 135.616C82.0943 135.408 82.5303 135.304 83.0423 135.304V136.432H82.7543C81.5303 136.432 80.9183 137.096 80.9183 138.424V142H79.8263V135.424H80.9183V136.492ZM87.0149 135.316C87.5829 135.316 88.0789 135.44 88.5029 135.688C88.9349 135.936 89.2549 136.248 89.4629 136.624V135.424H90.5669V142.144C90.5669 142.744 90.4389 143.276 90.1829 143.74C89.9269 144.212 89.5589 144.58 89.0789 144.844C88.6069 145.108 88.0549 145.24 87.4229 145.24C86.5589 145.24 85.8389 145.036 85.2629 144.628C84.6869 144.22 84.3469 143.664 84.2429 142.96H85.3229C85.4429 143.36 85.6909 143.68 86.0669 143.92C86.4429 144.168 86.8949 144.292 87.4229 144.292C88.0229 144.292 88.5109 144.104 88.8869 143.728C89.2709 143.352 89.4629 142.824 89.4629 142.144V140.764C89.2469 141.148 88.9269 141.468 88.5029 141.724C88.0789 141.98 87.5829 142.108 87.0149 142.108C86.4309 142.108 85.8989 141.964 85.4189 141.676C84.9469 141.388 84.5749 140.984 84.3029 140.464C84.0309 139.944 83.8949 139.352 83.8949 138.688C83.8949 138.016 84.0309 137.428 84.3029 136.924C84.5749 136.412 84.9469 136.016 85.4189 135.736C85.8989 135.456 86.4309 135.316 87.0149 135.316ZM89.4629 138.7C89.4629 138.204 89.3629 137.772 89.1629 137.404C88.9629 137.036 88.6909 136.756 88.3469 136.564C88.0109 136.364 87.6389 136.264 87.2309 136.264C86.8229 136.264 86.4509 136.36 86.1149 136.552C85.7789 136.744 85.5109 137.024 85.3109 137.392C85.1109 137.76 85.0109 138.192 85.0109 138.688C85.0109 139.192 85.1109 139.632 85.3109 140.008C85.5109 140.376 85.7789 140.66 86.1149 140.86C86.4509 141.052 86.8229 141.148 87.2309 141.148C87.6389 141.148 88.0109 141.052 88.3469 140.86C88.6909 140.66 88.9629 140.376 89.1629 140.008C89.3629 139.632 89.4629 139.196 89.4629 138.7ZM98.4123 138.46C98.4123 138.668 98.4003 138.888 98.3763 139.12H93.1203C93.1603 139.768 93.3803 140.276 93.7803 140.644C94.1883 141.004 94.6803 141.184 95.2563 141.184C95.7283 141.184 96.1203 141.076 96.4323 140.86C96.7523 140.636 96.9763 140.34 97.1043 139.972H98.2803C98.1043 140.604 97.7523 141.12 97.2243 141.52C96.6963 141.912 96.0403 142.108 95.2563 142.108C94.6323 142.108 94.0723 141.968 93.5763 141.688C93.0883 141.408 92.7043 141.012 92.4243 140.5C92.1443 139.98 92.0043 139.38 92.0043 138.7C92.0043 138.02 92.1403 137.424 92.4123 136.912C92.6843 136.4 93.0643 136.008 93.5523 135.736C94.0483 135.456 94.6163 135.316 95.2563 135.316C95.8803 135.316 96.4323 135.452 96.9123 135.724C97.3923 135.996 97.7603 136.372 98.0163 136.852C98.2803 137.324 98.4123 137.86 98.4123 138.46ZM97.2843 138.232C97.2843 137.816 97.1923 137.46 97.0083 137.164C96.8243 136.86 96.5723 136.632 96.2523 136.48C95.9403 136.32 95.5923 136.24 95.2083 136.24C94.6563 136.24 94.1843 136.416 93.7923 136.768C93.4083 137.12 93.1883 137.608 93.1323 138.232H97.2843ZM102.182 142.108C101.678 142.108 101.226 142.024 100.826 141.856C100.426 141.68 100.11 141.44 99.8777 141.136C99.6457 140.824 99.5177 140.468 99.4937 140.068H100.622C100.654 140.396 100.806 140.664 101.078 140.872C101.358 141.08 101.722 141.184 102.17 141.184C102.586 141.184 102.914 141.092 103.154 140.908C103.394 140.724 103.514 140.492 103.514 140.212C103.514 139.924 103.386 139.712 103.13 139.576C102.874 139.432 102.478 139.292 101.942 139.156C101.454 139.028 101.054 138.9 100.742 138.772C100.438 138.636 100.174 138.44 99.9497 138.184C99.7337 137.92 99.6257 137.576 99.6257 137.152C99.6257 136.816 99.7257 136.508 99.9257 136.228C100.126 135.948 100.41 135.728 100.778 135.568C101.146 135.4 101.566 135.316 102.038 135.316C102.766 135.316 103.354 135.5 103.802 135.868C104.25 136.236 104.49 136.74 104.522 137.38H103.43C103.406 137.036 103.266 136.76 103.01 136.552C102.762 136.344 102.426 136.24 102.002 136.24C101.61 136.24 101.298 136.324 101.066 136.492C100.834 136.66 100.718 136.88 100.718 137.152C100.718 137.368 100.786 137.548 100.922 137.692C101.066 137.828 101.242 137.94 101.45 138.028C101.666 138.108 101.962 138.2 102.338 138.304C102.81 138.432 103.194 138.56 103.49 138.688C103.786 138.808 104.038 138.992 104.246 139.24C104.462 139.488 104.574 139.812 104.582 140.212C104.582 140.572 104.482 140.896 104.282 141.184C104.082 141.472 103.798 141.7 103.43 141.868C103.07 142.028 102.654 142.108 102.182 142.108ZM107.455 136.324V140.2C107.455 140.52 107.523 140.748 107.659 140.884C107.795 141.012 108.031 141.076 108.367 141.076H109.171V142H108.187C107.579 142 107.123 141.86 106.819 141.58C106.515 141.3 106.363 140.84 106.363 140.2V136.324H105.511V135.424H106.363V133.768H107.455V135.424H109.171V136.324H107.455ZM113.286 138.688C113.286 138.016 113.422 137.428 113.694 136.924C113.966 136.412 114.338 136.016 114.81 135.736C115.29 135.456 115.826 135.316 116.418 135.316C116.93 135.316 117.406 135.436 117.846 135.676C118.286 135.908 118.622 136.216 118.854 136.6V133.12H119.958V142H118.854V140.764C118.638 141.156 118.318 141.48 117.894 141.736C117.47 141.984 116.974 142.108 116.406 142.108C115.822 142.108 115.29 141.964 114.81 141.676C114.338 141.388 113.966 140.984 113.694 140.464C113.422 139.944 113.286 139.352 113.286 138.688ZM118.854 138.7C118.854 138.204 118.754 137.772 118.554 137.404C118.354 137.036 118.082 136.756 117.738 136.564C117.402 136.364 117.03 136.264 116.622 136.264C116.214 136.264 115.842 136.36 115.506 136.552C115.17 136.744 114.902 137.024 114.702 137.392C114.502 137.76 114.402 138.192 114.402 138.688C114.402 139.192 114.502 139.632 114.702 140.008C114.902 140.376 115.17 140.66 115.506 140.86C115.842 141.052 116.214 141.148 116.622 141.148C117.03 141.148 117.402 141.052 117.738 140.86C118.082 140.66 118.354 140.376 118.554 140.008C118.754 139.632 118.854 139.196 118.854 138.7ZM122.367 134.356C122.159 134.356 121.983 134.284 121.839 134.14C121.695 133.996 121.623 133.82 121.623 133.612C121.623 133.404 121.695 133.228 121.839 133.084C121.983 132.94 122.159 132.868 122.367 132.868C122.567 132.868 122.735 132.94 122.871 133.084C123.015 133.228 123.087 133.404 123.087 133.612C123.087 133.82 123.015 133.996 122.871 134.14C122.735 134.284 122.567 134.356 122.367 134.356ZM122.895 135.424V142H121.803V135.424H122.895ZM127.468 135.316C128.036 135.316 128.532 135.44 128.956 135.688C129.388 135.936 129.708 136.248 129.916 136.624V135.424H131.02V142.144C131.02 142.744 130.892 143.276 130.636 143.74C130.38 144.212 130.012 144.58 129.532 144.844C129.06 145.108 128.508 145.24 127.876 145.24C127.012 145.24 126.292 145.036 125.716 144.628C125.14 144.22 124.8 143.664 124.696 142.96H125.776C125.896 143.36 126.144 143.68 126.52 143.92C126.896 144.168 127.348 144.292 127.876 144.292C128.476 144.292 128.964 144.104 129.34 143.728C129.724 143.352 129.916 142.824 129.916 142.144V140.764C129.7 141.148 129.38 141.468 128.956 141.724C128.532 141.98 128.036 142.108 127.468 142.108C126.884 142.108 126.352 141.964 125.872 141.676C125.4 141.388 125.028 140.984 124.756 140.464C124.484 139.944 124.348 139.352 124.348 138.688C124.348 138.016 124.484 137.428 124.756 136.924C125.028 136.412 125.4 136.016 125.872 135.736C126.352 135.456 126.884 135.316 127.468 135.316ZM129.916 138.7C129.916 138.204 129.816 137.772 129.616 137.404C129.416 137.036 129.144 136.756 128.8 136.564C128.464 136.364 128.092 136.264 127.684 136.264C127.276 136.264 126.904 136.36 126.568 136.552C126.232 136.744 125.964 137.024 125.764 137.392C125.564 137.76 125.464 138.192 125.464 138.688C125.464 139.192 125.564 139.632 125.764 140.008C125.964 140.376 126.232 140.66 126.568 140.86C126.904 141.052 127.276 141.148 127.684 141.148C128.092 141.148 128.464 141.052 128.8 140.86C129.144 140.66 129.416 140.376 129.616 140.008C129.816 139.632 129.916 139.196 129.916 138.7ZM133.429 134.356C133.221 134.356 133.045 134.284 132.901 134.14C132.757 133.996 132.685 133.82 132.685 133.612C132.685 133.404 132.757 133.228 132.901 133.084C133.045 132.94 133.221 132.868 133.429 132.868C133.629 132.868 133.797 132.94 133.933 133.084C134.077 133.228 134.149 133.404 134.149 133.612C134.149 133.82 134.077 133.996 133.933 134.14C133.797 134.284 133.629 134.356 133.429 134.356ZM133.957 135.424V142H132.865V135.424H133.957ZM137.151 136.324V140.2C137.151 140.52 137.219 140.748 137.355 140.884C137.491 141.012 137.727 141.076 138.063 141.076H138.867V142H137.883C137.275 142 136.819 141.86 136.515 141.58C136.211 141.3 136.059 140.84 136.059 140.2V136.324H135.207V135.424H136.059V133.768H137.151V135.424H138.867V136.324H137.151ZM139.782 138.688C139.782 138.016 139.918 137.428 140.19 136.924C140.462 136.412 140.834 136.016 141.306 135.736C141.786 135.456 142.318 135.316 142.902 135.316C143.478 135.316 143.978 135.44 144.402 135.688C144.826 135.936 145.142 136.248 145.35 136.624V135.424H146.454V142H145.35V140.776C145.134 141.16 144.81 141.48 144.378 141.736C143.954 141.984 143.458 142.108 142.89 142.108C142.306 142.108 141.778 141.964 141.306 141.676C140.834 141.388 140.462 140.984 140.19 140.464C139.918 139.944 139.782 139.352 139.782 138.688ZM145.35 138.7C145.35 138.204 145.25 137.772 145.05 137.404C144.85 137.036 144.578 136.756 144.234 136.564C143.898 136.364 143.526 136.264 143.118 136.264C142.71 136.264 142.338 136.36 142.002 136.552C141.666 136.744 141.398 137.024 141.198 137.392C140.998 137.76 140.898 138.192 140.898 138.688C140.898 139.192 140.998 139.632 141.198 140.008C141.398 140.376 141.666 140.66 142.002 140.86C142.338 141.052 142.71 141.148 143.118 141.148C143.526 141.148 143.898 141.052 144.234 140.86C144.578 140.66 144.85 140.376 145.05 140.008C145.25 139.632 145.35 139.196 145.35 138.7ZM149.391 133.12V142H148.299V133.12H149.391ZM155.543 133.12V142H154.451V133.12H155.543ZM157.968 134.356C157.76 134.356 157.584 134.284 157.44 134.14C157.296 133.996 157.224 133.82 157.224 133.612C157.224 133.404 157.296 133.228 157.44 133.084C157.584 132.94 157.76 132.868 157.968 132.868C158.168 132.868 158.336 132.94 158.472 133.084C158.616 133.228 158.688 133.404 158.688 133.612C158.688 133.82 158.616 133.996 158.472 134.14C158.336 134.284 158.168 134.356 157.968 134.356ZM158.496 135.424V142H157.404V135.424H158.496ZM161.45 136.648C161.674 136.256 162.002 135.936 162.434 135.688C162.866 135.44 163.358 135.316 163.91 135.316C164.502 135.316 165.034 135.456 165.506 135.736C165.978 136.016 166.35 136.412 166.622 136.924C166.894 137.428 167.03 138.016 167.03 138.688C167.03 139.352 166.894 139.944 166.622 140.464C166.35 140.984 165.974 141.388 165.494 141.676C165.022 141.964 164.494 142.108 163.91 142.108C163.342 142.108 162.842 141.984 162.41 141.736C161.986 141.488 161.666 141.172 161.45 140.788V142H160.358V133.12H161.45V136.648ZM165.914 138.688C165.914 138.192 165.814 137.76 165.614 137.392C165.414 137.024 165.142 136.744 164.798 136.552C164.462 136.36 164.09 136.264 163.682 136.264C163.282 136.264 162.91 136.364 162.566 136.564C162.23 136.756 161.958 137.04 161.75 137.416C161.55 137.784 161.45 138.212 161.45 138.7C161.45 139.196 161.55 139.632 161.75 140.008C161.958 140.376 162.23 140.66 162.566 140.86C162.91 141.052 163.282 141.148 163.682 141.148C164.09 141.148 164.462 141.052 164.798 140.86C165.142 140.66 165.414 140.376 165.614 140.008C165.814 139.632 165.914 139.192 165.914 138.688ZM169.559 136.492C169.751 136.116 170.023 135.824 170.375 135.616C170.735 135.408 171.171 135.304 171.683 135.304V136.432H171.395C170.171 136.432 169.559 137.096 169.559 138.424V142H168.467V135.424H169.559V136.492ZM172.536 138.688C172.536 138.016 172.672 137.428 172.944 136.924C173.216 136.412 173.588 136.016 174.06 135.736C174.54 135.456 175.072 135.316 175.656 135.316C176.232 135.316 176.732 135.44 177.156 135.688C177.58 135.936 177.896 136.248 178.104 136.624V135.424H179.208V142H178.104V140.776C177.888 141.16 177.564 141.48 177.132 141.736C176.708 141.984 176.212 142.108 175.644 142.108C175.06 142.108 174.532 141.964 174.06 141.676C173.588 141.388 173.216 140.984 172.944 140.464C172.672 139.944 172.536 139.352 172.536 138.688ZM178.104 138.7C178.104 138.204 178.004 137.772 177.804 137.404C177.604 137.036 177.332 136.756 176.988 136.564C176.652 136.364 176.28 136.264 175.872 136.264C175.464 136.264 175.092 136.36 174.756 136.552C174.42 136.744 174.152 137.024 173.952 137.392C173.752 137.76 173.652 138.192 173.652 138.688C173.652 139.192 173.752 139.632 173.952 140.008C174.152 140.376 174.42 140.66 174.756 140.86C175.092 141.052 175.464 141.148 175.872 141.148C176.28 141.148 176.652 141.052 176.988 140.86C177.332 140.66 177.604 140.376 177.804 140.008C178.004 139.632 178.104 139.196 178.104 138.7ZM182.145 136.492C182.337 136.116 182.609 135.824 182.961 135.616C183.321 135.408 183.757 135.304 184.269 135.304V136.432H183.981C182.757 136.432 182.145 137.096 182.145 138.424V142H181.053V135.424H182.145V136.492ZM191.193 135.424L187.233 145.096H186.105L187.401 141.928L184.749 135.424H185.961L188.025 140.752L190.065 135.424H191.193ZM192.639 142.072C192.431 142.072 192.255 142 192.111 141.856C191.967 141.712 191.895 141.536 191.895 141.328C191.895 141.12 191.967 140.944 192.111 140.8C192.255 140.656 192.431 140.584 192.639 140.584C192.839 140.584 193.007 140.656 193.143 140.8C193.287 140.944 193.359 141.12 193.359 141.328C193.359 141.536 193.287 141.712 193.143 141.856C193.007 142 192.839 142.072 192.639 142.072Z" fill="#ABA3A0"/>
<path d="M16.08 21.44C18.6933 21.44 20.7733 22.2933 22.32 24C23.8933 25.68 24.68 28 24.68 30.96V44H17.88V31.88C17.88 30.3867 17.4933 29.2267 16.72 28.4C15.9467 27.5733 14.9067 27.16 13.6 27.16C12.2933 27.16 11.2533 27.5733 10.48 28.4C9.70667 29.2267 9.32 30.3867 9.32 31.88V44H2.48V21.68H9.32V24.64C10.0133 23.6533 10.9467 22.88 12.12 22.32C13.2933 21.7333 14.6133 21.44 16.08 21.44ZM48.8731 32.48C48.8731 33.12 48.8331 33.7867 48.7531 34.48H33.2731C33.3798 35.8667 33.8198 36.9333 34.5931 37.68C35.3931 38.4 36.3665 38.76 37.5131 38.76C39.2198 38.76 40.4065 38.04 41.0731 36.6H48.3531C47.9798 38.0667 47.2998 39.3867 46.3131 40.56C45.3531 41.7333 44.1398 42.6533 42.6731 43.32C41.2065 43.9867 39.5665 44.32 37.7531 44.32C35.5665 44.32 33.6198 43.8533 31.9131 42.92C30.2065 41.9867 28.8731 40.6533 27.9131 38.92C26.9531 37.1867 26.4731 35.16 26.4731 32.84C26.4731 30.52 26.9398 28.4933 27.8731 26.76C28.8331 25.0267 30.1665 23.6933 31.8731 22.76C33.5798 21.8267 35.5398 21.36 37.7531 21.36C39.9131 21.36 41.8331 21.8133 43.5131 22.72C45.1931 23.6267 46.4998 24.92 47.4331 26.6C48.3931 28.28 48.8731 30.24 48.8731 32.48ZM41.8731 30.68C41.8731 29.5067 41.4731 28.5733 40.6731 27.88C39.8731 27.1867 38.8731 26.84 37.6731 26.84C36.5265 26.84 35.5531 27.1733 34.7531 27.84C33.9798 28.5067 33.4998 29.4533 33.3131 30.68H41.8731ZM64.0816 44L59.8016 37.8L56.2016 44H48.8016L56.1616 32.6L48.6016 21.68H56.2816L60.5616 27.84L64.1616 21.68H71.5616L64.0816 32.92L71.7616 44H64.0816ZM85.2372 38.2V44H81.7572C79.2772 44 77.3439 43.4 75.9572 42.2C74.5705 40.9733 73.8772 38.9867 73.8772 36.24V27.36H71.1572V21.68H73.8772V16.24H80.7172V21.68H85.1972V27.36H80.7172V36.32C80.7172 36.9867 80.8772 37.4667 81.1972 37.76C81.5172 38.0533 82.0505 38.2 82.7972 38.2H85.2372ZM102.804 21.36C104.377 21.36 105.75 21.68 106.924 22.32C108.124 22.96 109.044 23.8 109.684 24.84V21.68H116.524V43.96C116.524 46.0133 116.11 47.8667 115.284 49.52C114.484 51.2 113.244 52.5333 111.564 53.52C109.91 54.5067 107.844 55 105.364 55C102.057 55 99.3771 54.2133 97.3238 52.64C95.2704 51.0933 94.0971 48.9867 93.8038 46.32H100.564C100.777 47.1733 101.284 47.84 102.084 48.32C102.884 48.8267 103.87 49.08 105.044 49.08C106.457 49.08 107.577 48.6667 108.404 47.84C109.257 47.04 109.684 45.7467 109.684 43.96V40.8C109.017 41.84 108.097 42.6933 106.924 43.36C105.75 44 104.377 44.32 102.804 44.32C100.964 44.32 99.2971 43.8533 97.8038 42.92C96.3104 41.96 95.1238 40.6133 94.2438 38.88C93.3904 37.12 92.9638 35.0933 92.9638 32.8C92.9638 30.5067 93.3904 28.4933 94.2438 26.76C95.1238 25.0267 96.3104 23.6933 97.8038 22.76C99.2971 21.8267 100.964 21.36 102.804 21.36ZM109.684 32.84C109.684 31.1333 109.204 29.7867 108.244 28.8C107.31 27.8133 106.164 27.32 104.804 27.32C103.444 27.32 102.284 27.8133 101.324 28.8C100.39 29.76 99.9238 31.0933 99.9238 32.8C99.9238 34.5067 100.39 35.8667 101.324 36.88C102.284 37.8667 103.444 38.36 104.804 38.36C106.164 38.36 107.31 37.8667 108.244 36.88C109.204 35.8933 109.684 34.5467 109.684 32.84ZM140.912 32.48C140.912 33.12 140.872 33.7867 140.792 34.48H125.312C125.419 35.8667 125.859 36.9333 126.632 37.68C127.432 38.4 128.406 38.76 129.552 38.76C131.259 38.76 132.446 38.04 133.112 36.6H140.392C140.019 38.0667 139.339 39.3867 138.352 40.56C137.392 41.7333 136.179 42.6533 134.712 43.32C133.246 43.9867 131.606 44.32 129.792 44.32C127.606 44.32 125.659 43.8533 123.952 42.92C122.246 41.9867 120.912 40.6533 119.952 38.92C118.992 37.1867 118.512 35.16 118.512 32.84C118.512 30.52 118.979 28.4933 119.912 26.76C120.872 25.0267 122.206 23.6933 123.912 22.76C125.619 21.8267 127.579 21.36 129.792 21.36C131.952 21.36 133.872 21.8133 135.552 22.72C137.232 23.6267 138.539 24.92 139.472 26.6C140.432 28.28 140.912 30.24 140.912 32.48ZM133.912 30.68C133.912 29.5067 133.512 28.5733 132.712 27.88C131.912 27.1867 130.912 26.84 129.712 26.84C128.566 26.84 127.592 27.1733 126.792 27.84C126.019 28.5067 125.539 29.4533 125.352 30.68H133.912ZM156.521 21.44C159.134 21.44 161.214 22.2933 162.761 24C164.334 25.68 165.121 28 165.121 30.96V44H158.321V31.88C158.321 30.3867 157.934 29.2267 157.161 28.4C156.387 27.5733 155.347 27.16 154.041 27.16C152.734 27.16 151.694 27.5733 150.921 28.4C150.147 29.2267 149.761 30.3867 149.761 31.88V44H142.921V21.68H149.761V24.64C150.454 23.6533 151.387 22.88 152.561 22.32C153.734 21.7333 155.054 21.44 156.521 21.44ZM171.474 44.32C170.274 44.32 169.287 43.9733 168.514 43.28C167.767 42.56 167.394 41.68 167.394 40.64C167.394 39.5733 167.767 38.68 168.514 37.96C169.287 37.24 170.274 36.88 171.474 36.88C172.647 36.88 173.607 37.24 174.354 37.96C175.127 38.68 175.514 39.5733 175.514 40.64C175.514 41.68 175.127 42.56 174.354 43.28C173.607 43.9733 172.647 44.32 171.474 44.32ZM185.323 37.68L180.883 49.16H176.523L178.843 37.68H185.323ZM9.32 74.4V104H2.48V74.4H9.32ZM16.1169 79.36C14.9169 79.36 13.9302 79.0133 13.1569 78.32C12.4102 77.6 12.0369 76.72 12.0369 75.68C12.0369 74.6133 12.4102 73.7333 13.1569 73.04C13.9302 72.32 14.9169 71.96 16.1169 71.96C17.2902 71.96 18.2502 72.32 18.9969 73.04C19.7702 73.7333 20.1569 74.6133 20.1569 75.68C20.1569 76.72 19.7702 77.6 18.9969 78.32C18.2502 79.0133 17.2902 79.36 16.1169 79.36ZM19.5169 81.68V104H12.6769V81.68H19.5169ZM29.7137 84.84C30.3537 83.8 31.2737 82.96 32.4737 82.32C33.6737 81.68 35.0471 81.36 36.5938 81.36C38.4338 81.36 40.1004 81.8267 41.5938 82.76C43.0871 83.6933 44.2604 85.0267 45.1138 86.76C45.9938 88.4933 46.4338 90.5067 46.4338 92.8C46.4338 95.0933 45.9938 97.12 45.1138 98.88C44.2604 100.613 43.0871 101.96 41.5938 102.92C40.1004 103.853 38.4338 104.32 36.5938 104.32C35.0204 104.32 33.6471 104.013 32.4737 103.4C31.3004 102.76 30.3804 101.92 29.7137 100.88V104H22.8737V74.4H29.7137V84.84ZM39.4738 92.8C39.4738 91.0933 38.9938 89.76 38.0337 88.8C37.1004 87.8133 35.9404 87.32 34.5537 87.32C33.1937 87.32 32.0337 87.8133 31.0738 88.8C30.1404 89.7867 29.6737 91.1333 29.6737 92.84C29.6737 94.5467 30.1404 95.8933 31.0738 96.88C32.0337 97.8667 33.1937 98.36 34.5537 98.36C35.9138 98.36 37.0738 97.8667 38.0337 96.88C38.9938 95.8667 39.4738 94.5067 39.4738 92.8ZM55.2622 85.4C56.0622 84.1733 57.0622 83.2133 58.2622 82.52C59.4622 81.8 60.7955 81.44 62.2622 81.44V88.68H60.3822C58.6755 88.68 57.3955 89.0533 56.5422 89.8C55.6889 90.52 55.2622 91.8 55.2622 93.64V104H48.4222V81.68H55.2622V85.4ZM62.5716 92.8C62.5716 90.5067 62.9982 88.4933 63.8516 86.76C64.7316 85.0267 65.9182 83.6933 67.4116 82.76C68.9049 81.8267 70.5716 81.36 72.4116 81.36C73.9849 81.36 75.3582 81.68 76.5316 82.32C77.7316 82.96 78.6516 83.8 79.2916 84.84V81.68H86.1316V104H79.2916V100.84C78.6249 101.88 77.6916 102.72 76.4916 103.36C75.3182 104 73.9449 104.32 72.3716 104.32C70.5582 104.32 68.9049 103.853 67.4116 102.92C65.9182 101.96 64.7316 100.613 63.8516 98.88C62.9982 97.12 62.5716 95.0933 62.5716 92.8ZM79.2916 92.84C79.2916 91.1333 78.8116 89.7867 77.8516 88.8C76.9182 87.8133 75.7716 87.32 74.4116 87.32C73.0516 87.32 71.8916 87.8133 70.9316 88.8C69.9982 89.76 69.5316 91.0933 69.5316 92.8C69.5316 94.5067 69.9982 95.8667 70.9316 96.88C71.8916 97.8667 73.0516 98.36 74.4116 98.36C75.7716 98.36 76.9182 97.8667 77.8516 96.88C78.8116 95.8933 79.2916 94.5467 79.2916 92.84ZM96.32 85.4C97.12 84.1733 98.12 83.2133 99.32 82.52C100.52 81.8 101.853 81.44 103.32 81.44V88.68H101.44C99.7333 88.68 98.4533 89.0533 97.6 89.8C96.7467 90.52 96.32 91.8 96.32 93.64V104H89.48V81.68H96.32V85.4ZM127.789 81.68L113.789 114.6H106.429L111.549 103.24L102.469 81.68H110.109L115.269 95.64L120.389 81.68H127.789ZM131.863 104.32C130.663 104.32 129.676 103.973 128.903 103.28C128.156 102.56 127.783 101.68 127.783 100.64C127.783 99.5733 128.156 98.68 128.903 97.96C129.676 97.24 130.663 96.88 131.863 96.88C133.036 96.88 133.996 97.24 134.743 97.96C135.516 98.68 135.903 99.5733 135.903 100.64C135.903 101.68 135.516 102.56 134.743 103.28C133.996 103.973 133.036 104.32 131.863 104.32Z" fill="#ABA3A0"/>
</svg>
